<svg id="Layer_1" data-name="Layer 1" xmlns="http://www.w3.org/2000/svg" xmlns:xlink="http://www.w3.org/1999/xlink" viewBox="0 0 176.97 282.47"><defs><style>.cls-1{fill:url(#linear-gradient);}</style><linearGradient id="linear-gradient" x1="-581.07" y1="696.35" x2="-417.88" y2="696.37" gradientTransform="translate(500.28 1148.11) rotate(180)" gradientUnits="userSpaceOnUse"><stop offset="0" stop-color="#1be8d9"/><stop offset="1" stop-color="#5f78ea"/></linearGradient></defs><path class="cls-1" d="M1062.34,380.12a52.66,52.66,0,0,0-.82,33.93l0,.15a39.27,39.27,0,0,0,2.37,6.23c.32.66.64,1.28,1,1.86a52.52,52.52,0,0,0,9.56,13.08c27.09,27.1-1.56,71.73-42.2,37.87h0l0,0-.73-.59a53.79,53.79,0,0,0-10.43-6.36l-.11-.05-.28-.12-.47-.21-.09,0,0,0-.23-.1a48.23,48.23,0,0,0-34.19-3.13,54.07,54.07,0,0,0-19,10.11c-1.81,1.47-3.45,2.89-5,4.22-1.26,1.46-2.6,3-4,4.71-1.25,1.54-2.42,3.15-3.52,4.81-10,15.18-11,28.95-1.58,45a60.17,60.17,0,0,0,5.1,7.35c9.59,11.81,17,16.46,12.5,32.62a29.43,29.43,0,0,1-57.78-8.64c0-.71.09-1.42.14-2.12.61-8.66,9.6-15.89,15.4-22.44l0,0,.19-.25a56.48,56.48,0,0,0,4.29-6.58c9.35-16.91,8.35-32.72-4.22-45.91-3.2-3.37-6.79-6.75-9.74-10.68-.52-.68-1-1.38-1.46-2.09a26.5,26.5,0,0,1-4.49-12.87c-.05-.71-.12-1.42-.14-2.12a29.41,29.41,0,0,1,27.37-30.17l.36,0h.41l.59,0h2.26l1.3.1h.09c17,1.2,24.8,18.17,35.73,22.93l.15.05.15.06A53.28,53.28,0,0,0,995.66,454l.93.07h.07A53.54,53.54,0,0,0,1047,375a54.14,54.14,0,0,0-19.74-20.48,53.47,53.47,0,0,0-30-7.39,48.87,48.87,0,0,0-33.87,14.35c-12.82,12.82-28,19-43.25,3.77a29.44,29.44,0,0,1-5.58-33.83c8.71-17.43,31.14-19.31,44.34-6.1a53,53,0,0,0,8.94,7.18l0,.09h0l.7.38a52.59,52.59,0,0,0,45,4.72,57.85,57.85,0,0,0,7.69-3.27c6.57-3.52,11.17-10.15,16.88-15.13,23.85-23.82,62.5,5.3,46.7,34.72-7.65,14.23-16,8.54-22.46,26.12Zm-41.55,41.26a29.41,29.41,0,1,0-41.59,0A29.4,29.4,0,0,0,1020.79,421.38Z" transform="translate(-911.52 -310.51)"/></svg>